<svg xmlns="http://www.w3.org/2000/svg" viewBox="0 0 200 200" width="1000" height="1000">
  <g>
    
    <rect x="96" y="34" width="68" height="148" fill="#0F8B8D"></rect>
    <rect x="96" y="34" width="68" height="10" fill="#0A6F70"></rect>
    
    <rect x="34" y="64" width="74" height="118" fill="#E85A4F"></rect>
    <path d="M34 64 L71 40 L108 64 Z" fill="#1F3A4D"></path>
    
    <g fill="#FFC533">
      <rect x="108" y="56" width="14" height="14"></rect>
      <rect x="138" y="56" width="14" height="14"></rect>
      <rect x="108" y="84" width="14" height="14"></rect>
      <rect x="138" y="84" width="14" height="14"></rect>
      <rect x="108" y="112" width="14" height="14"></rect>
      <rect x="138" y="112" width="14" height="14"></rect>
      <rect x="108" y="140" width="14" height="14"></rect>
      <rect x="138" y="140" width="14" height="14"></rect>
    </g>
    
    <g fill="#FAF1DE">
      <rect x="46" y="78" width="14" height="14"></rect>
      <rect x="82" y="78" width="14" height="14"></rect>
      <rect x="46" y="104" width="14" height="14"></rect>
      <rect x="82" y="104" width="14" height="14"></rect>
    </g>
    
    <path d="M58 182 L58 144 Q58 134 71 134 Q84 134 84 144 L84 182 Z" fill="#1F3A4D"></path>
    <circle cx="78" cy="160" r="2.5" fill="#FFC533"></circle>
  </g>
</svg>