<svg xmlns="http://www.w3.org/2000/svg" viewBox="0 0 200 200" width="1000" height="1000">
  <g>
    
    <rect x="14" y="76" width="34" height="106" fill="#0F8B8D"></rect>
    <rect x="148" y="58" width="38" height="124" fill="#5A8A6B"></rect>
    
    <rect x="84" y="34" width="40" height="148" fill="#1F3A4D"></rect>
    <path d="M84 34 L104 16 L124 34 Z" fill="#E85A4F"></path>
    
    <rect x="102" y="6" width="4" height="14" fill="#1F3A4D"></rect>
    <circle cx="104" cy="6" r="4" fill="#E85A4F"></circle>
    
    <rect x="44" y="100" width="44" height="82" fill="#E85A4F"></rect>
    <rect x="118" y="92" width="36" height="90" fill="#FFC533"></rect>
    
    <rect x="0" y="180" width="200" height="6" fill="#16293A"></rect>
    
    <g fill="#FFC533">
      <rect x="92" y="48" width="6" height="8"></rect>
      <rect x="110" y="48" width="6" height="8"></rect>
      <rect x="92" y="68" width="6" height="8"></rect>
      <rect x="110" y="68" width="6" height="8"></rect>
      <rect x="92" y="88" width="6" height="8"></rect>
      <rect x="110" y="88" width="6" height="8"></rect>
      <rect x="92" y="108" width="6" height="8"></rect>
      <rect x="110" y="108" width="6" height="8"></rect>
      <rect x="92" y="128" width="6" height="8"></rect>
      <rect x="110" y="128" width="6" height="8"></rect>
      <rect x="92" y="148" width="6" height="8"></rect>
      <rect x="110" y="148" width="6" height="8"></rect>
    </g>
    
    <g fill="#FAF1DE">
      <rect x="22" y="94" width="6" height="8"></rect>
      <rect x="34" y="94" width="6" height="8"></rect>
      <rect x="22" y="112" width="6" height="8"></rect>
      <rect x="34" y="112" width="6" height="8"></rect>
      <rect x="22" y="130" width="6" height="8"></rect>
      <rect x="34" y="130" width="6" height="8"></rect>
      <rect x="22" y="148" width="6" height="8"></rect>
      <rect x="34" y="148" width="6" height="8"></rect>
    </g>
    
    <g fill="#FAF1DE">
      <rect x="52" y="116" width="8" height="10"></rect>
      <rect x="72" y="116" width="8" height="10"></rect>
      <rect x="52" y="138" width="8" height="10"></rect>
      <rect x="72" y="138" width="8" height="10"></rect>
      <rect x="52" y="160" width="8" height="10"></rect>
      <rect x="72" y="160" width="8" height="10"></rect>
    </g>
    
    <g fill="#1F3A4D">
      <rect x="124" y="106" width="6" height="8"></rect>
      <rect x="142" y="106" width="6" height="8"></rect>
      <rect x="124" y="126" width="6" height="8"></rect>
      <rect x="142" y="126" width="6" height="8"></rect>
      <rect x="124" y="146" width="6" height="8"></rect>
      <rect x="142" y="146" width="6" height="8"></rect>
    </g>
    
    <g fill="#FAF1DE">
      <rect x="156" y="76" width="6" height="8"></rect>
      <rect x="170" y="76" width="6" height="8"></rect>
      <rect x="156" y="96" width="6" height="8"></rect>
      <rect x="170" y="96" width="6" height="8"></rect>
      <rect x="156" y="116" width="6" height="8"></rect>
      <rect x="170" y="116" width="6" height="8"></rect>
      <rect x="156" y="136" width="6" height="8"></rect>
      <rect x="170" y="136" width="6" height="8"></rect>
    </g>
  </g>
</svg>